<svg xmlns="http://www.w3.org/2000/svg" xml:space="preserve" version="1.1" style="shape-rendering:geometricPrecision; text-rendering:geometricPrecision; image-rendering:optimizeQuality; fill-rule:evenodd; clip-rule:evenodd"
viewBox="0 0 7170 5803"
 xmlns:xlink="http://www.w3.org/1999/xlink">
 <defs>
  <style type="text/css">
   <![CDATA[
    .fil1 {fill:#868686}
    .fil0 {fill:#aeaeae}
   ]]>
  </style>
 </defs>
 <g id="layer_1">
  <path class="fil0" d="M2652 0c1465,0 2652,999 2652,2231 0,312 -76,609 -214,879 445,233 735,612 735,1039 0,62 -6,123 -18,183 67,-8 137,-12 208,-12 638,0 1155,332 1155,741 0,409 -517,741 -1155,741 -524,0 -966,-224 -1108,-531 -255,102 -549,160 -862,160 -841,0 -1546,-421 -1731,-987 -1305,-139 -2315,-1077 -2315,-2214 0,-1232 1187,-2231 2652,-2231z"/>
  <path class="fil1" d="M2819 520c1202,0 2177,820 2177,1832 0,256 -63,500 -175,721 366,191 757,713 839,1067 162,704 -142,146 776,333 355,72 504,261 504,597 0,336 -455,512 -932,512 -477,0 -868,-259 -984,-511 -210,84 -662,233 -1135,164 -474,-70 -1194,-602 -1346,-1067 -1071,-114 -1900,-884 -1900,-1817 0,-1012 975,-1832 2177,-1832z"/>
 </g>
</svg>